<svg width="196" height="64" viewBox="0 0 196 64" fill="none" xmlns="http://www.w3.org/2000/svg">
<g clip-path="url(#clip0)">
<path d="M32.3293 54.591C27.9691 54.591 23.9352 53.3818 20.5242 51.2878H6.46484C12.3674 59.015 21.6513 63.9993 32.1513 63.9993C41.1089 63.9993 49.2657 60.3127 55.1089 54.4436L48.6428 47.6602C44.5199 51.9367 38.7064 54.591 32.3293 54.591Z" fill="#261F60"/>
<path d="M9.52119 32.4719V32C9.52119 19.5244 19.6949 9.40829 32.2119 9.40829C38.2627 9.40829 43.6907 11.7382 47.8136 15.6018L54.6059 9.17235C48.8814 3.45069 40.8729 0 32.1525 0C14.3856 0 0 14.3041 0 32C0 32.1475 0 32.3244 0 32.4719H9.52119Z" fill="#261F60"/>
<path fill-rule="evenodd" clip-rule="evenodd" d="M196.001 25.6001H186.421V24.7743C186.421 22.5033 185.828 20.9697 184.73 19.9669C183.633 18.9642 181.942 18.3743 179.45 18.3743C177.997 18.3743 176.811 18.6692 175.861 19.1706C174.883 19.7015 174.2 20.2914 173.756 20.9107C173.311 21.5596 172.925 22.5623 172.658 24.0075C172.391 25.4821 172.213 26.6914 172.183 27.6351C172.154 28.6379 172.124 29.9651 172.124 31.6757V35.0969C172.154 35.6573 172.213 36.601 172.302 37.8987C172.421 39.1669 172.569 39.9927 172.747 40.4646C172.984 41.025 173.311 41.7328 173.696 42.5881C174.082 43.3844 174.556 43.8563 175.001 44.1218H175.031H175.061C176.603 45.095 178.323 45.5669 180.311 45.5669C181.972 45.5669 183.336 45.213 184.433 44.5642C185.501 43.9448 186.361 43.001 187.014 41.7033V39.7863H181.764V31.1448H195.942V45.154L195.883 45.3015C194.548 48.3983 192.442 50.7872 189.535 52.3503C186.658 53.9135 183.425 54.6803 179.836 54.6803C173.518 54.6803 168.772 52.9402 165.806 49.2831C162.9 45.6554 161.535 40.2287 161.535 33.2093V27.9301C161.535 22.1789 163.078 17.578 166.222 14.2158C169.395 10.8831 173.756 9.23145 179.183 9.23145C184.611 9.23145 189.061 10.8536 192.442 14.1863C194.904 16.6047 196.061 20.1734 196.061 24.7448V25.6001H196.001Z" fill="#261F60"/>
<path fill-rule="evenodd" clip-rule="evenodd" d="M115.768 25.5999V24.7741C115.768 20.2027 114.611 16.634 112.149 14.2156C108.797 10.8829 104.348 9.26074 98.8905 9.26074C93.4625 9.26074 89.1024 10.8829 85.9286 14.2451C82.7846 17.5778 81.2422 22.1787 81.2422 27.9594V30.3778V33.2976V35.716C81.2422 41.4672 82.7846 46.0681 85.9286 49.4303C89.1024 52.763 93.4625 54.4147 98.8905 54.4147C104.318 54.4147 108.768 52.7925 112.149 49.4598C114.611 47.0414 115.768 43.4727 115.768 38.9013V38.046H106.187V38.8423C106.187 41.1133 105.594 42.6469 104.496 43.6497C103.399 44.6524 101.708 45.2423 99.2168 45.2423C97.7634 45.2423 96.5769 44.9474 95.6278 44.446C94.649 43.9151 93.9668 43.3253 93.5218 42.7059C93.0769 42.057 92.6913 41.0543 92.4244 39.6091C92.1574 38.1345 91.9795 36.9253 91.9498 35.9815C91.9202 34.9787 91.8905 33.6515 91.8905 31.9409V31.705C91.8905 30.0239 91.9202 28.6672 91.9498 27.6644C91.9795 26.7206 92.1574 25.5114 92.4244 24.0368C92.6913 22.5916 93.0769 21.5889 93.5218 20.94C93.9668 20.2912 94.649 19.7308 95.6278 19.1999C96.5769 18.669 97.7634 18.4036 99.2168 18.4036C101.708 18.4036 103.399 18.9935 104.496 19.9962C105.564 20.999 106.187 22.5621 106.187 24.8036V25.5999H115.768Z" fill="#261F60"/>
<path fill-rule="evenodd" clip-rule="evenodd" d="M148.184 36.5711C150.201 35.6568 151.922 34.2117 153.316 32.2651C154.977 29.9647 155.807 27.2808 155.807 24.2135C155.807 20.0255 154.443 16.5158 151.714 13.773C149.015 10.9711 145.337 9.58496 140.858 9.58496H133.651C130.032 9.58496 127.214 10.3518 125.494 12.0624C123.774 13.7435 122.973 16.3389 122.973 19.6716V54.3555H133.117V38.3702H137.922C137.892 38.3702 143.765 38.6356 148.184 36.5711ZM132.286 30.5545V21.7656C132.286 19.2292 133.562 17.961 136.083 17.961H140.295C142.163 17.961 143.646 18.5214 144.773 19.6716C145.93 20.7923 146.494 22.2965 146.494 24.1545C146.494 25.9831 145.901 27.5168 144.714 28.7555C143.557 29.9647 142.104 30.584 140.295 30.584H132.286V30.5545Z" fill="#261F60"/>
<path d="M49.267 19.4657L51.5212 21.7072L39.2415 33.8583L33.8432 28.4611L27.1398 21.7957L20.4364 28.4611L16.7288 32.1477L13.8517 32.2067H0C0.059322 35.451 0.59322 38.5772 1.51271 41.556H20.6737L27.1398 35.1265L39.2712 47.1892L45.9746 40.5238L58.1653 28.3136L60.5975 30.7321L62.2881 17.1357L49.267 19.4657Z" fill="#72CACE"/>
</g>
<defs>
<clipPath id="clip0">
<rect width="196" height="64" fill="white"/>
</clipPath>
</defs>
</svg>
