<svg width="196" height="64" viewBox="0 0 196 64" fill="none" xmlns="http://www.w3.org/2000/svg">
<g clip-path="url(#clip0)">
<path d="M32.3312 54.591C27.971 54.591 23.9371 53.3818 20.5261 51.2878H6.4668C12.3693 59.015 21.6532 63.9993 32.1532 63.9993C41.1109 63.9993 49.2677 60.3127 55.1109 54.4436L48.6448 47.6602C44.5219 51.9367 38.7083 54.591 32.3312 54.591Z" fill="#261F60"/>
<path d="M9.52119 32.4719V32C9.52119 19.5244 19.6949 9.40829 32.2119 9.40829C38.2627 9.40829 43.6907 11.7382 47.8136 15.6018L54.6059 9.17235C48.8814 3.45069 40.8729 0 32.1525 0C14.3856 0 0 14.3041 0 32C0 32.1475 0 32.3244 0 32.4719H9.52119Z" fill="#261F60"/>
<path fill-rule="evenodd" clip-rule="evenodd" d="M196 25.6001H186.42V24.7743C186.42 22.5033 185.827 20.9697 184.729 19.9669C183.632 18.9642 181.941 18.3743 179.449 18.3743C177.996 18.3743 176.81 18.6692 175.86 19.1706C174.882 19.7015 174.199 20.2914 173.755 20.9107C173.31 21.5596 172.924 22.5623 172.657 24.0075C172.39 25.4821 172.212 26.6914 172.183 27.6351C172.153 28.6379 172.123 29.9651 172.123 31.6757V35.0969C172.153 35.6573 172.212 36.601 172.301 37.8987C172.42 39.1669 172.568 39.9927 172.746 40.4646C172.983 41.025 173.31 41.7328 173.695 42.5881C174.081 43.3844 174.555 43.8563 175 44.1218H175.03H175.06C176.602 45.095 178.322 45.5669 180.31 45.5669C181.971 45.5669 183.335 45.213 184.433 44.5642C185.5 43.9448 186.36 43.001 187.013 41.7033V39.7863H181.763V31.1448H195.941V45.154L195.882 45.3015C194.547 48.3983 192.441 50.7872 189.534 52.3503C186.657 53.9135 183.424 54.6803 179.835 54.6803C173.517 54.6803 168.771 52.9402 165.805 49.2831C162.899 45.6554 161.534 40.2287 161.534 33.2093V27.9301C161.534 22.1789 163.077 17.578 166.221 14.2158C169.394 10.8831 173.755 9.23145 179.183 9.23145C184.61 9.23145 189.06 10.8536 192.441 14.1863C194.903 16.6047 196.06 20.1734 196.06 24.7448V25.6001H196Z" fill="#261F60"/>
<path fill-rule="evenodd" clip-rule="evenodd" d="M115.768 25.5999V24.7741C115.768 20.2027 114.611 16.634 112.149 14.2156C108.797 10.8829 104.348 9.26074 98.8905 9.26074C93.4625 9.26074 89.1024 10.8829 85.9286 14.2451C82.7846 17.5778 81.2422 22.1787 81.2422 27.9594V30.3778V33.2976V35.716C81.2422 41.4672 82.7846 46.0681 85.9286 49.4303C89.1024 52.763 93.4625 54.4147 98.8905 54.4147C104.318 54.4147 108.768 52.7925 112.149 49.4598C114.611 47.0414 115.768 43.4727 115.768 38.9013V38.046H106.187V38.8423C106.187 41.1133 105.594 42.6469 104.496 43.6497C103.399 44.6524 101.708 45.2423 99.2168 45.2423C97.7634 45.2423 96.5769 44.9474 95.6278 44.446C94.649 43.9151 93.9668 43.3253 93.5218 42.7059C93.0769 42.057 92.6913 41.0543 92.4244 39.6091C92.1574 38.1345 91.9795 36.9253 91.9498 35.9815C91.9202 34.9787 91.8905 33.6515 91.8905 31.9409V31.705C91.8905 30.0239 91.9202 28.6672 91.9498 27.6644C91.9795 26.7206 92.1574 25.5114 92.4244 24.0368C92.6913 22.5916 93.0769 21.5889 93.5218 20.94C93.9668 20.2912 94.649 19.7308 95.6278 19.1999C96.5769 18.669 97.7634 18.4036 99.2168 18.4036C101.708 18.4036 103.399 18.9935 104.496 19.9962C105.564 20.999 106.187 22.5621 106.187 24.8036V25.5999H115.768Z" fill="#261F60"/>
<path fill-rule="evenodd" clip-rule="evenodd" d="M148.186 36.5711C150.203 35.6568 151.924 34.2117 153.318 32.2651C154.979 29.9647 155.809 27.2808 155.809 24.2135C155.809 20.0255 154.445 16.5158 151.716 13.773C149.017 10.9711 145.339 9.58496 140.86 9.58496H133.653C130.034 9.58496 127.216 10.3518 125.496 12.0624C123.775 13.7435 122.975 16.3389 122.975 19.6716V54.3555H133.119V38.3702H137.924C137.894 38.3702 143.767 38.6356 148.186 36.5711ZM132.288 30.5545V21.7656C132.288 19.2292 133.564 17.961 136.085 17.961H140.297C142.165 17.961 143.648 18.5214 144.775 19.6716C145.932 20.7923 146.496 22.2965 146.496 24.1545C146.496 25.9831 145.903 27.5168 144.716 28.7555C143.559 29.9647 142.106 30.584 140.297 30.584H132.288V30.5545Z" fill="#261F60"/>
<path d="M49.267 19.4657L51.5212 21.7072L39.2415 33.8583L33.8432 28.4611L27.1398 21.7957L20.4364 28.4611L16.7288 32.1477L13.8517 32.2067H0C0.059322 35.451 0.59322 38.5772 1.51271 41.556H20.6737L27.1398 35.1265L39.2712 47.1892L45.9746 40.5238L58.1653 28.3136L60.5975 30.7321L62.2881 17.1357L49.267 19.4657Z" fill="#72CACE"/>
</g>
<defs>
<clipPath id="clip0">
<rect width="196" height="64" fill="white"/>
</clipPath>
</defs>
</svg>
