<svg width="1157" height="257" viewBox="0 0 1157 257" fill="none" xmlns="http://www.w3.org/2000/svg">
<path fill-rule="evenodd" clip-rule="evenodd" d="M331.518 113.234H308.027V111.245C308.027 105.668 306.537 101.841 303.898 99.3806C301.235 96.8971 297.054 95.4796 290.983 95.4796C287.447 95.4796 284.549 96.1732 282.208 97.4672L282.196 97.4736L282.185 97.4798C279.79 98.7631 278.115 100.211 277.039 101.775C275.964 103.339 275.032 105.816 274.355 109.377C273.665 113.004 273.283 115.983 273.188 118.337C273.09 120.786 273.04 124.088 273.04 128.254V136.688C273.14 138.094 273.289 140.407 273.484 143.618C273.777 146.713 274.153 148.762 274.554 149.911C275.139 151.269 275.919 153.013 276.894 155.148C277.87 157.08 278.973 158.256 280.118 158.897L280.164 158.922L280.208 158.951C283.964 161.32 288.235 162.52 293.082 162.52C297.145 162.52 300.483 161.663 303.185 160.045C305.773 158.496 307.896 156.179 309.526 153.001V148.297H296.631V127.011H331.368V161.483L331.209 161.856C327.942 169.51 322.745 175.328 315.641 179.232C308.616 183.092 300.68 185 291.883 185C276.437 185 264.803 180.716 257.492 171.73L257.483 171.719L257.475 171.709C250.378 162.75 247 149.442 247 132.133V119.004C247 104.83 250.747 93.4951 258.485 85.2676C266.238 77.0253 276.909 73 290.234 73C303.562 73 314.45 77.0257 322.685 85.2203C328.69 91.1957 331.518 99.9971 331.518 111.245V113.234ZM433.781 184.105H405.04L384.198 144.716H372.41V184.105H347.57V98.7123C347.57 90.5133 349.466 84.107 353.713 79.9888C357.97 75.7598 364.822 73.8952 373.71 73.8952H391.403C402.433 73.8952 411.387 77.2762 418.029 84.1982C424.727 90.9743 428.039 99.5971 428.039 109.902C428.039 117.434 426.034 124.066 421.968 129.71C418.542 134.499 414.347 138.045 409.386 140.289L433.781 184.105ZM370.411 125.419V103.785C370.411 97.5187 373.51 94.3854 379.707 94.3854H390.053C394.652 94.3854 398.3 95.778 400.999 98.5631C403.798 101.348 405.198 105.028 405.198 109.604C405.198 114.08 403.748 117.86 400.849 120.943C398.05 123.927 394.452 125.419 390.053 125.419H370.411ZM514.501 184.105H474.716C462.611 184.105 453.553 182.071 448.092 177.524L448.075 177.51L448.059 177.495C442.614 172.754 440.179 164.724 440.179 154.066V73.8952H514.501V96.3748H465.019V117.313H499.824L498.002 139.792H465.019V152.574C465.019 156.556 465.941 158.687 467.157 159.706C468.476 160.811 471.285 161.625 476.215 161.625H514.501V184.105ZM615.596 73.8952L582.245 139.026V184.105H557.554V139.026L524.203 73.8952H551.384L570.036 113.944L588.407 73.8952H615.596ZM685.873 176.077L685.866 176.082C678.044 182.077 668.139 185 656.307 185C646.824 185 637.681 182.403 628.903 177.265L628.884 177.254L628.864 177.242C624.357 174.466 620.685 170.583 617.837 165.65L617.833 165.642L617.828 165.634C614.943 160.531 613.523 154.768 613.523 148.396V146.499L636.414 145.415V147.501C636.414 152.186 638.361 155.743 642.405 158.367C646.671 161.136 651.388 162.52 656.607 162.52C662.681 162.52 666.879 161.446 669.513 159.601C672.018 157.846 673.35 155.222 673.35 151.38C673.35 148.215 672.426 145.913 670.749 144.245C669.038 142.542 666.326 141.284 662.349 140.672L644.96 138.882L644.915 138.875C635.91 137.536 628.597 134.315 623.134 129.092C617.535 123.739 614.872 116.141 614.872 106.62C614.872 96.8554 618.803 88.7386 626.548 82.4045C634.263 76.0946 643.933 73 655.407 73C666.942 73 676.431 75.9253 683.673 81.9628C690.934 87.9147 694.592 95.6904 694.592 105.128V107.023L672.369 108.093L672.038 106.405C671.262 102.454 669.589 99.6911 667.147 97.8841C664.675 96.0555 661.182 95.032 656.457 95.032C650.628 95.032 646.305 96.2684 643.265 98.5107C640.264 100.798 638.963 103.335 638.963 106.172C638.963 109.105 639.981 111.31 641.98 112.989C644.143 114.705 646.871 115.824 650.248 116.282L667.342 118.073L667.372 118.077C677.208 119.409 684.86 122.752 690.048 128.319C695.252 133.904 697.741 141.476 697.741 150.783C697.741 161.388 693.8 169.895 685.879 176.072L685.873 176.077ZM792.178 184.105H767.338V141.135H732.201V184.105H707.36V73.8952H732.201V118.805H767.338V73.8952H792.178V184.105ZM884.328 184.105H844.544C832.439 184.105 823.381 182.071 817.92 177.524L817.903 177.51L817.887 177.495C812.442 172.754 810.007 164.724 810.007 154.066V73.8952H884.328V96.3748H834.847V117.313H869.652L867.83 139.792H834.847V152.574C834.847 156.556 835.769 158.687 836.985 159.706C838.304 160.811 841.113 161.625 846.043 161.625H884.328V184.105ZM971.616 184.105H931.831C919.726 184.105 910.668 182.071 905.207 177.524L905.19 177.51L905.174 177.495C899.729 172.754 897.294 164.724 897.294 154.066V73.8952H971.616V96.3748H922.134V117.313H956.939L955.117 139.792H922.134V152.574C922.134 156.556 923.056 158.687 924.272 159.706C925.591 160.811 928.4 161.625 933.33 161.625H971.616V184.105ZM1066 96.3748H1037.36V184.105H1012.52V96.3748H984.031V73.8952H1066V96.3748Z" fill="#291C64"/>
<path d="M1087.33 76.6024H1082V74.2169H1095.56V76.6024H1090.22V91.7831H1087.33V76.6024V76.6024Z" fill="#BFBDCB"/>
<path d="M1099.11 74H1099.33L1105.56 83.5422C1106 84.1928 1106.67 85.2771 1106.67 85.2771C1106.67 85.2771 1107.33 84.1928 1107.78 83.5422L1114 74H1114.22L1116 92H1113.11L1112.22 83.3253C1112.22 82.241 1112 80.506 1112 80.506C1112 80.506 1111.33 82.0241 1110.67 82.8916L1106.67 89.1807H1106.44L1102.44 82.8916C1101.78 82.0241 1100.89 80.506 1100.89 80.506C1100.89 80.506 1100.89 82.241 1100.67 83.3253L1099.78 92H1097.11L1099.11 74Z" fill="#BFBDCB"/>
<path fill-rule="evenodd" clip-rule="evenodd" d="M173.837 86.7681L174.541 87.4801L194.963 67.2318L194.247 66.5217C177.788 50.2029 155.152 40 130 40C79.7071 40 39 80.3479 39 130.233C39 161.982 55.6757 189.976 80.6864 205.964L101.968 184.95C81.7289 174.939 67.9096 154.106 67.9096 130.233C67.9096 96.266 95.7201 68.6802 130 68.6802C147.142 68.6802 162.716 75.5218 173.837 86.7681ZM82.4025 207.027C82.1925 206.901 81.9832 206.775 81.7744 206.649L82.3948 207.033L82.4025 207.027Z" fill="#291C64"/>
<path fill-rule="evenodd" clip-rule="evenodd" d="M146.864 115.781H221V189.526H192.09V165.142L162.27 194.709C156.422 200.506 146.995 200.506 141.147 194.709L139.326 192.903C138.163 191.75 136.29 191.742 135.118 192.886L115.174 212.344C111.515 215.914 106.201 217.495 101.259 215.823C94.3788 213.494 87.8215 210.313 81.7681 206.645L80.6704 205.98L126.677 160.553C132.527 154.777 141.938 154.786 147.777 160.575L149.37 162.155C150.54 163.314 152.425 163.314 153.595 162.155L171.44 144.461H146.864V115.781Z" fill="#50CDD0"/>
</svg>